<svg xmlns="http://www.w3.org/2000/svg" xmlns:xlink="http://www.w3.org/1999/xlink" width="500" zoomAndPan="magnify" viewBox="0 0 375 374.999991" height="500" preserveAspectRatio="xMidYMid meet" version="1.0"><defs><g/><clipPath id="08e64aac64"><path d="M 94 141.59375 L 113 141.59375 L 113 160 L 94 160 Z M 94 141.59375 " clip-rule="nonzero"/></clipPath><clipPath id="39887be53e"><path d="M 91.085938 159 L 110 159 L 110 175 L 91.085938 175 Z M 91.085938 159 " clip-rule="nonzero"/></clipPath><clipPath id="ed9b7b332f"><path d="M 122 159 L 140.585938 159 L 140.585938 175 L 122 175 Z M 122 159 " clip-rule="nonzero"/></clipPath><clipPath id="243d76559a"><path d="M 118 141.59375 L 137 141.59375 L 137 160 L 118 160 Z M 118 141.59375 " clip-rule="nonzero"/></clipPath><clipPath id="25c9973bbe"><path d="M 91.085938 177 L 140.585938 177 L 140.585938 191.09375 L 91.085938 191.09375 Z M 91.085938 177 " clip-rule="nonzero"/></clipPath></defs><g clip-path="url(#08e64aac64)"><path fill="#575656" d="M 105.695312 152.042969 C 105.734375 152.003906 105.773438 151.925781 105.8125 151.886719 C 106.082031 151.464844 106.464844 151.15625 106.929688 151 L 110.050781 149.84375 L 110.050781 146.835938 L 112.210938 146.183594 C 112.515625 146.105469 112.75 145.796875 112.75 145.449219 C 112.75 145.101562 112.554688 144.832031 112.246094 144.71875 L 104.152344 141.75 C 104 141.671875 103.804688 141.671875 103.613281 141.75 L 95.519531 144.71875 C 95.363281 144.792969 95.210938 144.910156 95.132812 145.027344 C 95.019531 145.179688 94.902344 145.375 94.902344 145.605469 L 94.902344 148.339844 C 94.902344 148.765625 95.25 149.113281 95.671875 149.113281 C 96.097656 149.113281 96.445312 148.765625 96.445312 148.339844 L 96.445312 146.492188 L 97.714844 146.875 L 97.714844 150.578125 C 97.714844 150.886719 97.910156 151.15625 98.179688 151.269531 C 98.21875 151.617188 98.257812 151.964844 98.332031 152.3125 C 98.371094 152.542969 98.410156 152.773438 98.449219 153.003906 C 98.640625 154.355469 99.179688 158.441406 103.496094 159.019531 C 103.613281 159.054688 103.730469 159.054688 103.882812 159.054688 C 104.039062 159.054688 104.191406 159.054688 104.347656 159.019531 C 105.308594 158.863281 106.082031 158.554688 106.695312 158.171875 C 106.195312 157.9375 105.773438 157.554688 105.539062 157.089844 C 105.117188 157.320312 104.65625 157.4375 104.113281 157.515625 C 103.921875 157.554688 103.804688 157.554688 103.613281 157.515625 C 101.417969 157.207031 100.296875 155.820312 99.914062 152.8125 C 99.875 152.582031 99.835938 152.3125 99.796875 152.078125 C 99.796875 151.964844 99.757812 151.847656 99.757812 151.734375 C 100.953125 151.964844 102.378906 152.117188 103.84375 152.117188 C 104.5 152.117188 105.117188 152.078125 105.695312 152.042969 Z M 99.375 150.035156 C 99.335938 150.035156 99.296875 150.035156 99.257812 150 L 99.257812 147.300781 L 103.652344 148.609375 C 103.730469 148.648438 103.804688 148.648438 103.882812 148.648438 C 103.960938 148.648438 104.039062 148.648438 104.113281 148.609375 L 108.507812 147.300781 L 108.507812 150 C 108.507812 150 108.46875 150 108.46875 150 C 108.433594 150 108.394531 150.035156 108.355469 150.035156 C 108.394531 150.035156 108.394531 150 108.433594 150 C 107.238281 150.382812 105.578125 150.578125 103.882812 150.578125 C 102.1875 150.578125 100.53125 150.382812 99.375 150.035156 Z M 99.375 150.035156 " fill-opacity="1" fill-rule="nonzero"/></g><g clip-path="url(#39887be53e)"><path fill="#575656" d="M 91.164062 173.316406 C 91.164062 173.742188 91.511719 174.089844 91.933594 174.089844 C 92.359375 174.089844 92.707031 173.742188 92.707031 173.316406 L 92.707031 165.800781 C 92.707031 164.875 94.476562 163.757812 95.328125 163.375 L 100.414062 161.097656 L 102.84375 163.140625 L 100.839844 169.464844 C 100.761719 169.734375 100.800781 170.003906 100.992188 170.234375 L 102.109375 171.429688 C 102.378906 170.96875 105.078125 168.691406 105.078125 168.691406 C 105.503906 168.460938 105.847656 168.269531 106.003906 168.191406 L 106.464844 168 L 104.925781 163.105469 L 107.351562 161.0625 L 109.011719 161.792969 C 108.933594 161.445312 108.894531 161.136719 108.855469 160.90625 C 108.816406 160.675781 108.777344 160.445312 108.738281 160.210938 C 108.738281 160.136719 108.703125 160.058594 108.703125 159.980469 L 107.507812 159.480469 C 107.238281 159.363281 106.929688 159.402344 106.695312 159.597656 L 103.882812 162.023438 L 101.03125 159.632812 C 100.800781 159.441406 100.492188 159.402344 100.222656 159.519531 L 94.710938 161.949219 C 94.363281 162.101562 91.125 163.605469 91.164062 165.800781 Z M 91.164062 173.316406 " fill-opacity="1" fill-rule="nonzero"/></g><g clip-path="url(#ed9b7b332f)"><path fill="#575656" d="M 136.953125 161.949219 L 131.40625 159.519531 C 131.132812 159.402344 130.828125 159.441406 130.59375 159.632812 L 127.742188 162.023438 L 124.890625 159.632812 C 124.660156 159.441406 124.351562 159.402344 124.082031 159.519531 L 122.925781 160.019531 C 122.925781 160.097656 122.886719 160.175781 122.886719 160.25 C 122.847656 160.484375 122.808594 160.714844 122.769531 160.945312 C 122.730469 161.175781 122.695312 161.484375 122.617188 161.832031 L 124.234375 161.136719 L 126.664062 163.179688 L 125.121094 168.074219 L 125.585938 168.269531 C 125.894531 168.347656 128.550781 170.234375 128.550781 170.234375 C 128.898438 170.621094 129.246094 171.003906 129.515625 171.46875 L 130.632812 170.234375 C 130.828125 170.042969 130.902344 169.734375 130.789062 169.464844 L 128.785156 163.105469 L 131.210938 161.0625 L 136.300781 163.296875 C 137.148438 163.683594 138.921875 164.839844 138.921875 165.761719 L 138.921875 173.316406 C 138.921875 173.742188 139.269531 174.089844 139.691406 174.089844 C 140.117188 174.089844 140.460938 173.742188 140.460938 173.316406 L 140.460938 165.800781 C 140.5 163.644531 137.339844 162.101562 136.953125 161.949219 Z M 136.953125 161.949219 " fill-opacity="1" fill-rule="nonzero"/></g><g clip-path="url(#243d76559a)"><path fill="#575656" d="M 131.710938 152.8125 C 131.289062 155.820312 130.25 157.167969 128.050781 157.476562 C 127.859375 157.515625 127.742188 157.515625 127.550781 157.476562 C 126.125 157.285156 125.160156 156.628906 124.542969 155.355469 L 123.542969 155.703125 L 123.542969 156.742188 C 124.273438 157.824219 125.429688 158.785156 127.355469 159.054688 C 127.511719 159.054688 127.628906 159.054688 127.78125 159.054688 C 127.933594 159.054688 128.089844 159.054688 128.242188 159.019531 C 132.058594 158.476562 132.90625 155.316406 133.214844 153.003906 C 133.253906 152.773438 133.292969 152.542969 133.332031 152.273438 C 133.371094 151.925781 133.449219 151.578125 133.484375 151.230469 C 133.753906 151.117188 133.949219 150.847656 133.949219 150.539062 L 133.949219 146.800781 L 136.105469 146.144531 C 136.414062 146.066406 136.648438 145.757812 136.648438 145.410156 C 136.648438 145.066406 136.453125 144.792969 136.144531 144.679688 L 128.050781 141.710938 C 127.898438 141.632812 127.703125 141.632812 127.511719 141.710938 L 119.417969 144.679688 C 119.261719 144.757812 119.109375 144.871094 119.03125 144.988281 C 118.914062 145.179688 118.800781 145.375 118.800781 145.605469 L 118.800781 148.339844 C 118.800781 148.609375 118.914062 148.804688 119.109375 148.957031 L 119.496094 149.113281 C 119.53125 149.113281 119.53125 149.113281 119.570312 149.113281 C 119.996094 149.113281 120.34375 148.765625 120.34375 148.339844 L 120.34375 146.492188 L 121.613281 146.875 L 121.613281 149.882812 L 124.734375 151.039062 C 125.277344 151.230469 125.699219 151.617188 125.96875 152.078125 C 126.546875 152.117188 127.164062 152.15625 127.820312 152.15625 C 129.324219 152.15625 130.75 152.003906 131.90625 151.773438 C 131.90625 151.886719 131.867188 152.003906 131.867188 152.117188 C 131.789062 152.3125 131.75 152.582031 131.710938 152.8125 Z M 127.78125 150.578125 C 126.085938 150.578125 124.429688 150.382812 123.273438 150.035156 C 123.234375 150.035156 123.195312 150.035156 123.15625 150 L 123.15625 147.300781 L 127.550781 148.609375 C 127.628906 148.648438 127.703125 148.648438 127.78125 148.648438 C 127.859375 148.648438 127.933594 148.648438 128.011719 148.609375 L 132.40625 147.300781 L 132.40625 150 C 132.40625 150 132.367188 150 132.367188 150 C 132.328125 150 132.292969 150.035156 132.253906 150.035156 C 132.292969 150.035156 132.292969 150 132.328125 150 C 131.132812 150.382812 129.476562 150.578125 127.78125 150.578125 Z M 127.78125 150.578125 " fill-opacity="1" fill-rule="nonzero"/></g><g clip-path="url(#25c9973bbe)"><path fill="#575656" d="M 140.425781 189.96875 L 136.53125 180.71875 C 136.453125 180.488281 136.261719 180.332031 136.03125 180.292969 C 135.644531 180.179688 134.527344 179.871094 132.984375 179.523438 L 132.636719 178.675781 C 132.5625 178.445312 132.367188 178.289062 132.136719 178.214844 C 131.867188 178.136719 131.097656 177.90625 130.054688 177.636719 L 130.054688 181.066406 C 130.054688 182.335938 129.015625 183.378906 127.742188 183.378906 C 126.472656 183.378906 105.117188 183.378906 103.84375 183.378906 C 102.574219 183.378906 101.53125 182.335938 101.53125 181.066406 L 101.53125 177.636719 C 100.492188 177.90625 99.71875 178.136719 99.449219 178.214844 C 99.21875 178.289062 99.027344 178.445312 98.949219 178.675781 L 98.640625 179.484375 C 97.097656 179.832031 96.019531 180.140625 95.597656 180.257812 C 95.363281 180.332031 95.171875 180.488281 95.09375 180.679688 L 91.203125 189.929688 C 91.085938 190.164062 91.125 190.433594 91.277344 190.664062 C 91.433594 190.894531 91.664062 191.011719 91.933594 191.011719 L 112.75 191.011719 C 112.824219 191.011719 112.941406 191.011719 113.019531 190.972656 L 115.832031 189.890625 L 118.644531 190.972656 C 118.722656 191.011719 118.839844 191.011719 118.914062 191.011719 L 139.730469 191.011719 C 140 191.011719 140.230469 190.894531 140.386719 190.664062 C 140.539062 190.433594 140.539062 190.199219 140.425781 189.96875 Z M 119.070312 189.507812 L 116.101562 188.351562 C 115.910156 188.273438 115.714844 188.273438 115.5625 188.351562 L 112.59375 189.507812 L 93.089844 189.507812 L 96.367188 181.644531 C 96.828125 181.527344 97.332031 181.375 97.910156 181.257812 L 95.828125 186.539062 C 95.710938 186.808594 95.789062 187.15625 95.980469 187.347656 C 96.175781 187.578125 96.519531 187.65625 96.792969 187.542969 C 100.839844 186.152344 111.976562 183.457031 115.175781 187.734375 C 115.332031 187.925781 115.5625 188.042969 115.792969 188.042969 C 116.023438 188.042969 116.257812 187.925781 116.410156 187.734375 C 119.609375 183.457031 130.789062 186.113281 134.796875 187.542969 C 135.066406 187.65625 135.414062 187.578125 135.605469 187.347656 C 135.796875 187.117188 135.875 186.808594 135.761719 186.539062 L 133.679688 181.257812 C 134.257812 181.414062 134.796875 181.527344 135.21875 181.644531 L 138.574219 189.507812 Z M 119.070312 189.507812 " fill-opacity="1" fill-rule="nonzero"/></g><path fill="#575656" d="M 125.007812 169.65625 L 119.457031 167.226562 C 119.1875 167.113281 118.878906 167.152344 118.644531 167.34375 L 115.792969 169.734375 L 112.941406 167.34375 C 112.710938 167.152344 112.402344 167.113281 112.132812 167.226562 L 106.621094 169.65625 C 106.273438 169.808594 103.035156 171.3125 103.074219 173.511719 L 103.074219 181.027344 C 103.074219 181.449219 103.421875 181.796875 103.84375 181.796875 C 104.269531 181.796875 104.617188 181.449219 104.617188 181.027344 L 104.617188 173.511719 C 104.617188 172.585938 106.390625 171.46875 107.238281 171.082031 L 112.363281 168.808594 L 114.792969 170.851562 L 112.789062 177.171875 C 112.710938 177.441406 112.75 177.710938 112.941406 177.945312 L 115.175781 180.371094 C 115.332031 180.527344 115.523438 180.601562 115.753906 180.601562 L 115.871094 180.601562 C 116.101562 180.601562 116.292969 180.527344 116.449219 180.371094 L 118.683594 177.945312 C 118.878906 177.75 118.953125 177.441406 118.839844 177.171875 L 116.835938 170.8125 L 119.261719 168.769531 L 124.351562 171.003906 C 125.199219 171.390625 126.972656 172.546875 126.972656 173.472656 L 126.972656 181.027344 C 126.972656 181.449219 127.320312 181.796875 127.742188 181.796875 C 128.167969 181.796875 128.511719 181.449219 128.511719 181.027344 L 128.511719 173.511719 C 128.550781 171.351562 125.390625 169.808594 125.007812 169.65625 Z M 125.007812 169.65625 " fill-opacity="1" fill-rule="nonzero"/><path fill="#575656" d="M 115.5625 149.457031 L 107.46875 152.425781 C 107.3125 152.503906 107.160156 152.621094 107.082031 152.734375 C 106.96875 152.890625 106.851562 153.042969 106.851562 153.273438 L 106.851562 156.011719 C 106.851562 156.433594 107.199219 156.78125 107.621094 156.78125 C 108.046875 156.78125 108.394531 156.433594 108.394531 156.011719 L 108.394531 154.160156 L 109.664062 154.546875 L 109.664062 158.285156 C 109.664062 158.59375 109.859375 158.863281 110.128906 158.980469 C 110.167969 159.328125 110.203125 159.671875 110.28125 160.019531 C 110.320312 160.25 110.359375 160.484375 110.398438 160.714844 C 110.589844 162.0625 111.128906 166.148438 115.445312 166.726562 C 115.5625 166.765625 115.679688 166.765625 115.832031 166.765625 C 115.988281 166.765625 116.140625 166.765625 116.292969 166.726562 C 120.109375 166.1875 120.957031 163.027344 121.265625 160.714844 C 121.304688 160.484375 121.34375 160.25 121.382812 159.980469 C 121.421875 159.632812 121.5 159.289062 121.535156 158.941406 C 121.808594 158.824219 122 158.554688 122 158.246094 L 122 154.507812 L 124.15625 153.851562 C 124.464844 153.777344 124.699219 153.46875 124.699219 153.121094 C 124.699219 152.773438 124.503906 152.503906 124.195312 152.386719 L 116.101562 149.421875 C 115.910156 149.421875 115.753906 149.421875 115.5625 149.457031 Z M 119.878906 159.789062 C 119.839844 160.019531 119.800781 160.289062 119.765625 160.519531 C 119.339844 163.527344 118.300781 164.875 116.101562 165.183594 C 115.910156 165.222656 115.792969 165.222656 115.601562 165.183594 C 113.402344 164.875 112.285156 163.488281 111.902344 160.484375 C 111.863281 160.25 111.824219 159.980469 111.785156 159.75 C 111.785156 159.632812 111.746094 159.519531 111.746094 159.402344 C 112.941406 159.632812 114.367188 159.789062 115.832031 159.789062 C 117.335938 159.789062 118.761719 159.632812 119.917969 159.402344 C 119.917969 159.558594 119.878906 159.671875 119.878906 159.789062 Z M 120.457031 157.707031 C 120.457031 157.707031 120.417969 157.707031 120.417969 157.707031 C 120.378906 157.707031 120.34375 157.746094 120.304688 157.746094 C 120.34375 157.746094 120.34375 157.707031 120.378906 157.707031 C 119.1875 158.09375 117.527344 158.285156 115.832031 158.285156 C 114.136719 158.285156 112.480469 158.09375 111.324219 157.746094 C 111.285156 157.746094 111.246094 157.746094 111.207031 157.707031 L 111.207031 155.007812 L 115.601562 156.320312 C 115.679688 156.359375 115.753906 156.359375 115.832031 156.359375 C 115.910156 156.359375 115.988281 156.359375 116.0625 156.320312 L 120.457031 155.007812 Z M 120.457031 157.707031 " fill-opacity="1" fill-rule="nonzero"/><g fill="#7a0b0b" fill-opacity="1"><g transform="translate(140.548222, 180.549027)"><g><path d="M 15.5625 -0.6875 L 12.9375 -8.46875 L 5.796875 -8.46875 L 3.03125 -0.6875 L 5.734375 -0.6875 L 5.734375 0 L 0.21875 0 L 0.21875 -0.6875 L 1.90625 -0.6875 L 11.09375 -25.4375 L 14.046875 -25.4375 L 23.125 -0.6875 L 24.796875 -0.6875 L 24.796875 0 L 13 0 L 13 -0.6875 Z M 9.515625 -18.703125 L 6.125 -9.265625 L 12.640625 -9.265625 Z M 9.515625 -18.703125 "/></g></g></g><g fill="#7a0b0b" fill-opacity="1"><g transform="translate(162.024677, 180.549027)"><g><path d="M 0.21875 -27.015625 L 9.046875 -27.015625 L 9.046875 -0.65625 L 11.0625 -0.65625 L 11.0625 0 L 0.359375 0 L 0.359375 -0.65625 L 2.34375 -0.65625 L 2.34375 -26.375 L 0.21875 -26.375 Z M 0.21875 -27.015625 "/></g></g></g><g fill="#7a0b0b" fill-opacity="1"><g transform="translate(169.879859, 180.549027)"><g><path d="M 21.4375 0 L 13.21875 0 L 12.828125 -2.625 C 12.441406 -1.664062 11.867188 -0.925781 11.109375 -0.40625 C 10.359375 0.101562 9.238281 0.359375 7.75 0.359375 C 4.019531 0.359375 2.15625 -1.644531 2.15625 -5.65625 L 2.15625 -16.5 L 0.140625 -16.5 L 0.140625 -17.15625 L 8.859375 -17.15625 L 8.859375 -4.796875 C 8.859375 -3.347656 8.957031 -2.394531 9.15625 -1.9375 C 9.363281 -1.488281 9.773438 -1.265625 10.390625 -1.265625 C 11.003906 -1.265625 11.550781 -1.632812 12.03125 -2.375 C 12.507812 -3.125 12.75 -4.160156 12.75 -5.484375 L 12.75 -16.5 L 11.09375 -16.5 L 11.09375 -17.15625 L 19.453125 -17.15625 L 19.453125 -0.65625 L 21.4375 -0.65625 Z M 21.4375 0 "/></g></g></g><g fill="#7a0b0b" fill-opacity="1"><g transform="translate(188.149186, 180.549027)"><g><path d="M 0.359375 -17.15625 L 9.046875 -17.15625 L 9.046875 -13.84375 C 9.835938 -16.289062 11.582031 -17.515625 14.28125 -17.515625 C 16.988281 -17.515625 18.628906 -16.21875 19.203125 -13.625 C 20.046875 -16.21875 21.8125 -17.515625 24.5 -17.515625 C 28.03125 -17.515625 29.796875 -15.507812 29.796875 -11.5 L 29.796875 -0.65625 L 31.8125 -0.65625 L 31.8125 0 L 21.828125 0 L 21.828125 -0.65625 L 23.09375 -0.65625 L 23.09375 -12.359375 C 23.09375 -14.179688 22.9375 -15.25 22.625 -15.5625 C 22.476562 -15.707031 22.285156 -15.78125 22.046875 -15.78125 C 21.347656 -15.78125 20.734375 -15.3125 20.203125 -14.375 C 19.679688 -13.4375 19.421875 -12.25 19.421875 -10.8125 L 19.421875 -0.65625 L 20.71875 -0.65625 L 20.71875 0 L 11.453125 0 L 11.453125 -0.65625 L 12.71875 -0.65625 L 12.71875 -12.359375 C 12.71875 -14.179688 12.5625 -15.25 12.25 -15.5625 C 12.101562 -15.707031 11.910156 -15.78125 11.671875 -15.78125 C 11.003906 -15.78125 10.398438 -15.269531 9.859375 -14.25 C 9.316406 -13.226562 9.046875 -12.007812 9.046875 -10.59375 L 9.046875 -0.65625 L 10.34375 -0.65625 L 10.34375 0 L 0.359375 0 L 0.359375 -0.65625 L 2.34375 -0.65625 L 2.34375 -16.5 L 0.359375 -16.5 Z M 0.359375 -17.15625 "/></g></g></g><g fill="#7a0b0b" fill-opacity="1"><g transform="translate(216.616454, 180.549027)"><g><path d="M 0.4375 -17.15625 L 9.109375 -17.15625 L 9.109375 -13.84375 C 9.492188 -14.945312 10.082031 -15.832031 10.875 -16.5 C 11.675781 -17.175781 12.878906 -17.515625 14.484375 -17.515625 C 18.203125 -17.515625 20.0625 -15.507812 20.0625 -11.5 L 20.0625 -0.65625 L 22.09375 -0.65625 L 22.09375 0 L 11.890625 0 L 11.890625 -0.65625 L 13.375 -0.65625 L 13.375 -12.359375 C 13.375 -13.796875 13.273438 -14.722656 13.078125 -15.140625 C 12.890625 -15.566406 12.539062 -15.78125 12.03125 -15.78125 C 11.257812 -15.78125 10.578125 -15.273438 9.984375 -14.265625 C 9.398438 -13.253906 9.109375 -12.03125 9.109375 -10.59375 L 9.109375 -0.65625 L 10.671875 -0.65625 L 10.671875 0 L 0.4375 0 L 0.4375 -0.65625 L 2.421875 -0.65625 L 2.421875 -16.5 L 0.4375 -16.5 Z M 0.4375 -17.15625 "/></g></g></g><g fill="#7a0b0b" fill-opacity="1"><g transform="translate(235.282173, 180.549027)"><g><path d="M 5.65625 -19.640625 C 4.382812 -19.640625 3.476562 -19.960938 2.9375 -20.609375 C 2.394531 -21.253906 2.125 -22.054688 2.125 -23.015625 C 2.125 -23.984375 2.414062 -24.78125 3 -25.40625 C 3.59375 -26.03125 4.488281 -26.34375 5.6875 -26.34375 C 6.894531 -26.34375 7.8125 -26.054688 8.4375 -25.484375 C 9.0625 -24.921875 9.375 -24.117188 9.375 -23.078125 C 9.375 -22.035156 9.070312 -21.203125 8.46875 -20.578125 C 7.863281 -19.953125 6.925781 -19.640625 5.65625 -19.640625 Z M 0.21875 -17.15625 L 9.046875 -17.15625 L 9.046875 -0.65625 L 11.0625 -0.65625 L 11.0625 0 L 0.359375 0 L 0.359375 -0.65625 L 2.34375 -0.65625 L 2.34375 -16.5 L 0.21875 -16.5 Z M 0.21875 -17.15625 "/></g></g></g><g fill="#7a0b0b" fill-opacity="1"><g transform="translate(243.181027, 180.549027)"><g/></g></g><g fill="#000000" fill-opacity="1"><g transform="translate(140.548222, 192.442766)"><g><path d="M 4.1875 0.0625 C 3.5 0.0625 2.875 -0.0859375 2.3125 -0.390625 C 1.75 -0.703125 1.304688 -1.128906 0.984375 -1.671875 C 0.671875 -2.222656 0.515625 -2.835938 0.515625 -3.515625 C 0.515625 -4.191406 0.671875 -4.800781 0.984375 -5.34375 C 1.304688 -5.882812 1.75 -6.304688 2.3125 -6.609375 C 2.875 -6.921875 3.503906 -7.078125 4.203125 -7.078125 C 4.722656 -7.078125 5.203125 -6.988281 5.640625 -6.8125 C 6.085938 -6.644531 6.460938 -6.394531 6.765625 -6.0625 L 6.296875 -5.59375 C 5.753906 -6.144531 5.0625 -6.421875 4.21875 -6.421875 C 3.664062 -6.421875 3.160156 -6.289062 2.703125 -6.03125 C 2.253906 -5.78125 1.898438 -5.429688 1.640625 -4.984375 C 1.378906 -4.546875 1.25 -4.054688 1.25 -3.515625 C 1.25 -2.960938 1.378906 -2.460938 1.640625 -2.015625 C 1.898438 -1.578125 2.253906 -1.234375 2.703125 -0.984375 C 3.160156 -0.734375 3.664062 -0.609375 4.21875 -0.609375 C 5.0625 -0.609375 5.753906 -0.882812 6.296875 -1.4375 L 6.765625 -0.96875 C 6.460938 -0.632812 6.085938 -0.378906 5.640625 -0.203125 C 5.191406 -0.0234375 4.707031 0.0625 4.1875 0.0625 Z M 4.1875 0.0625 "/></g></g></g><g fill="#000000" fill-opacity="1"><g transform="translate(146.77673, 192.442766)"><g><path d="M 6.109375 -0.640625 L 6.109375 0 L 1.140625 0 L 1.140625 -7.015625 L 5.953125 -7.015625 L 5.953125 -6.375 L 1.890625 -6.375 L 1.890625 -3.875 L 5.515625 -3.875 L 5.515625 -3.25 L 1.890625 -3.25 L 1.890625 -0.640625 Z M 6.109375 -0.640625 "/></g></g></g><g fill="#000000" fill-opacity="1"><g transform="translate(152.503678, 192.442766)"><g><path d="M 7.015625 -7.015625 L 7.015625 0 L 6.40625 0 L 1.890625 -5.703125 L 1.890625 0 L 1.140625 0 L 1.140625 -7.015625 L 1.75 -7.015625 L 6.28125 -1.328125 L 6.28125 -7.015625 Z M 7.015625 -7.015625 "/></g></g></g><g fill="#000000" fill-opacity="1"><g transform="translate(159.675133, 192.442766)"><g><path d="M 2.5 -6.375 L 0.046875 -6.375 L 0.046875 -7.015625 L 5.71875 -7.015625 L 5.71875 -6.375 L 3.25 -6.375 L 3.25 0 L 2.5 0 Z M 2.5 -6.375 "/></g></g></g><g fill="#000000" fill-opacity="1"><g transform="translate(164.449109, 192.442766)"><g><path d="M 5.9375 0 L 4.328125 -2.25 C 4.148438 -2.238281 3.960938 -2.234375 3.765625 -2.234375 L 1.890625 -2.234375 L 1.890625 0 L 1.140625 0 L 1.140625 -7.015625 L 3.765625 -7.015625 C 4.660156 -7.015625 5.363281 -6.800781 5.875 -6.375 C 6.382812 -5.945312 6.640625 -5.359375 6.640625 -4.609375 C 6.640625 -4.066406 6.5 -3.601562 6.21875 -3.21875 C 5.945312 -2.84375 5.550781 -2.570312 5.03125 -2.40625 L 6.75 0 Z M 3.75 -2.859375 C 4.445312 -2.859375 4.976562 -3.007812 5.34375 -3.3125 C 5.707031 -3.625 5.890625 -4.054688 5.890625 -4.609375 C 5.890625 -5.179688 5.707031 -5.617188 5.34375 -5.921875 C 4.976562 -6.222656 4.445312 -6.375 3.75 -6.375 L 1.890625 -6.375 L 1.890625 -2.859375 Z M 3.75 -2.859375 "/></g></g></g><g fill="#000000" fill-opacity="1"><g transform="translate(170.717741, 192.442766)"><g><path d="M 5.546875 -1.875 L 1.640625 -1.875 L 0.796875 0 L 0.015625 0 L 3.234375 -7.015625 L 3.96875 -7.015625 L 7.171875 0 L 6.390625 0 Z M 5.28125 -2.484375 L 3.59375 -6.25 L 1.90625 -2.484375 Z M 5.28125 -2.484375 "/></g></g></g><g fill="#000000" fill-opacity="1"><g transform="translate(176.926189, 192.442766)"><g><path d="M 1.140625 -7.015625 L 1.890625 -7.015625 L 1.890625 -0.640625 L 5.8125 -0.640625 L 5.8125 0 L 1.140625 0 Z M 1.140625 -7.015625 "/></g></g></g><g fill="#000000" fill-opacity="1"><g transform="translate(181.850633, 192.442766)"><g/></g></g><g fill="#000000" fill-opacity="1"><g transform="translate(183.494845, 192.442766)"><g><path d="M 3.96875 0.0625 C 3.0625 0.0625 2.351562 -0.195312 1.84375 -0.71875 C 1.332031 -1.238281 1.078125 -2 1.078125 -3 L 1.078125 -7.015625 L 1.828125 -7.015625 L 1.828125 -3.03125 C 1.828125 -2.21875 2.007812 -1.609375 2.375 -1.203125 C 2.738281 -0.804688 3.269531 -0.609375 3.96875 -0.609375 C 4.675781 -0.609375 5.210938 -0.804688 5.578125 -1.203125 C 5.941406 -1.609375 6.125 -2.21875 6.125 -3.03125 L 6.125 -7.015625 L 6.84375 -7.015625 L 6.84375 -3 C 6.84375 -2 6.59375 -1.238281 6.09375 -0.71875 C 5.59375 -0.195312 4.882812 0.0625 3.96875 0.0625 Z M 3.96875 0.0625 "/></g></g></g><g fill="#000000" fill-opacity="1"><g transform="translate(190.455639, 192.442766)"><g><path d="M 7.015625 -7.015625 L 7.015625 0 L 6.40625 0 L 1.890625 -5.703125 L 1.890625 0 L 1.140625 0 L 1.140625 -7.015625 L 1.75 -7.015625 L 6.28125 -1.328125 L 6.28125 -7.015625 Z M 7.015625 -7.015625 "/></g></g></g><g fill="#000000" fill-opacity="1"><g transform="translate(197.627096, 192.442766)"><g><path d="M 1.140625 -7.015625 L 1.890625 -7.015625 L 1.890625 0 L 1.140625 0 Z M 1.140625 -7.015625 "/></g></g></g><g fill="#000000" fill-opacity="1"><g transform="translate(199.672562, 192.442766)"><g><path d="M 6.984375 -7.015625 L 3.875 0 L 3.140625 0 L 0.03125 -7.015625 L 0.828125 -7.015625 L 3.515625 -0.921875 L 6.234375 -7.015625 Z M 6.984375 -7.015625 "/></g></g></g><g fill="#000000" fill-opacity="1"><g transform="translate(205.69042, 192.442766)"><g><path d="M 6.109375 -0.640625 L 6.109375 0 L 1.140625 0 L 1.140625 -7.015625 L 5.953125 -7.015625 L 5.953125 -6.375 L 1.890625 -6.375 L 1.890625 -3.875 L 5.515625 -3.875 L 5.515625 -3.25 L 1.890625 -3.25 L 1.890625 -0.640625 Z M 6.109375 -0.640625 "/></g></g></g><g fill="#000000" fill-opacity="1"><g transform="translate(211.417369, 192.442766)"><g><path d="M 5.9375 0 L 4.328125 -2.25 C 4.148438 -2.238281 3.960938 -2.234375 3.765625 -2.234375 L 1.890625 -2.234375 L 1.890625 0 L 1.140625 0 L 1.140625 -7.015625 L 3.765625 -7.015625 C 4.660156 -7.015625 5.363281 -6.800781 5.875 -6.375 C 6.382812 -5.945312 6.640625 -5.359375 6.640625 -4.609375 C 6.640625 -4.066406 6.5 -3.601562 6.21875 -3.21875 C 5.945312 -2.84375 5.550781 -2.570312 5.03125 -2.40625 L 6.75 0 Z M 3.75 -2.859375 C 4.445312 -2.859375 4.976562 -3.007812 5.34375 -3.3125 C 5.707031 -3.625 5.890625 -4.054688 5.890625 -4.609375 C 5.890625 -5.179688 5.707031 -5.617188 5.34375 -5.921875 C 4.976562 -6.222656 4.445312 -6.375 3.75 -6.375 L 1.890625 -6.375 L 1.890625 -2.859375 Z M 3.75 -2.859375 "/></g></g></g><g fill="#000000" fill-opacity="1"><g transform="translate(217.686002, 192.442766)"><g><path d="M 3.078125 0.0625 C 2.554688 0.0625 2.054688 -0.0195312 1.578125 -0.1875 C 1.097656 -0.351562 0.726562 -0.578125 0.46875 -0.859375 L 0.765625 -1.421875 C 1.015625 -1.171875 1.347656 -0.96875 1.765625 -0.8125 C 2.191406 -0.65625 2.628906 -0.578125 3.078125 -0.578125 C 3.703125 -0.578125 4.171875 -0.691406 4.484375 -0.921875 C 4.804688 -1.148438 4.96875 -1.445312 4.96875 -1.8125 C 4.96875 -2.09375 4.878906 -2.316406 4.703125 -2.484375 C 4.535156 -2.648438 4.328125 -2.78125 4.078125 -2.875 C 3.835938 -2.96875 3.492188 -3.066406 3.046875 -3.171875 C 2.515625 -3.304688 2.09375 -3.429688 1.78125 -3.546875 C 1.46875 -3.671875 1.195312 -3.859375 0.96875 -4.109375 C 0.75 -4.367188 0.640625 -4.71875 0.640625 -5.15625 C 0.640625 -5.507812 0.734375 -5.832031 0.921875 -6.125 C 1.109375 -6.414062 1.394531 -6.644531 1.78125 -6.8125 C 2.175781 -6.988281 2.660156 -7.078125 3.234375 -7.078125 C 3.628906 -7.078125 4.019531 -7.019531 4.40625 -6.90625 C 4.789062 -6.800781 5.125 -6.648438 5.40625 -6.453125 L 5.15625 -5.875 C 4.863281 -6.0625 4.550781 -6.203125 4.21875 -6.296875 C 3.882812 -6.398438 3.554688 -6.453125 3.234375 -6.453125 C 2.617188 -6.453125 2.15625 -6.332031 1.84375 -6.09375 C 1.53125 -5.851562 1.375 -5.546875 1.375 -5.171875 C 1.375 -4.890625 1.457031 -4.664062 1.625 -4.5 C 1.800781 -4.332031 2.015625 -4.203125 2.265625 -4.109375 C 2.523438 -4.015625 2.875 -3.914062 3.3125 -3.8125 C 3.820312 -3.6875 4.234375 -3.5625 4.546875 -3.4375 C 4.867188 -3.3125 5.140625 -3.125 5.359375 -2.875 C 5.585938 -2.625 5.703125 -2.285156 5.703125 -1.859375 C 5.703125 -1.503906 5.601562 -1.179688 5.40625 -0.890625 C 5.21875 -0.597656 4.925781 -0.363281 4.53125 -0.1875 C 4.132812 -0.0195312 3.648438 0.0625 3.078125 0.0625 Z M 3.078125 0.0625 "/></g></g></g><g fill="#000000" fill-opacity="1"><g transform="translate(222.871256, 192.442766)"><g><path d="M 1.140625 -7.015625 L 1.890625 -7.015625 L 1.890625 0 L 1.140625 0 Z M 1.140625 -7.015625 "/></g></g></g><g fill="#000000" fill-opacity="1"><g transform="translate(224.916722, 192.442766)"><g><path d="M 2.5 -6.375 L 0.046875 -6.375 L 0.046875 -7.015625 L 5.71875 -7.015625 L 5.71875 -6.375 L 3.25 -6.375 L 3.25 0 L 2.5 0 Z M 2.5 -6.375 "/></g></g></g><g fill="#000000" fill-opacity="1"><g transform="translate(229.690699, 192.442766)"><g><path d="M 3.546875 -2.421875 L 3.546875 0 L 2.8125 0 L 2.8125 -2.421875 L 0.015625 -7.015625 L 0.796875 -7.015625 L 3.203125 -3.078125 L 5.625 -7.015625 L 6.359375 -7.015625 Z M 3.546875 -2.421875 "/></g></g></g></svg>